<?xml version="1.0" encoding="utf-8"?>
<!-- Generator: Adobe Illustrator 27.9.0, SVG Export Plug-In . SVG Version: 6.00 Build 0)  -->
<svg version="1.1" id="Group_222" xmlns="http://www.w3.org/2000/svg" xmlns:xlink="http://www.w3.org/1999/xlink" x="0px" y="0px"
	 viewBox="0 0 24.7 43" style="enable-background:new 0 0 24.7 43;" xml:space="preserve">
<style type="text/css">
	.st0{fill:#F4D9D9;}
</style>
<path id="Path_26" class="st0" d="M10.3,22.3c1.7-3.1,5.1-5,7-7.8c2.1-2.9,0.9-8.4-4.9-8.4c-3.8,0-5.7,2.9-6.5,5.3L0,9
	c1.7-5.4,6.7-9,12.3-9c5.3,0,9,2.4,10.8,5.5c1.6,2.6,2.5,7.5,0.1,11.1c-2.7,4-5.3,5.2-6.7,7.8c-0.6,1-0.8,1.7-0.8,5.1H9.2
	C9.1,27.7,8.9,24.8,10.3,22.3z M16.9,38.5c0,2.5-2,4.5-4.5,4.5s-4.5-2-4.5-4.5s2-4.5,4.5-4.5c0,0,0,0,0,0C14.9,34,16.9,36,16.9,38.5
	z"/>
</svg>
